# xmcd
#
# Track frame offsets:
#  150
#  37191
#  57326
#  75078
#  99417
#  121370
#  146639
#  165816
#  192478
#  230735
#  258807
#  289847
#
# Disc length: 4130 seconds
#
# Revision: 0
# Processed by: cddbd v1.5.2PL0 Copyright (c) Steve Scherf et al.
# Submitted via: Collectorz.com_Music_Collector 6.11
#
DISCID=9f10200c
DTITLE=Steve Winwood with Eric Clapton - Madison Square Garden 2008 (2CDs) [CD1)
DYEAR=2008
DGENRE=R&B
TTITLE0=Had To Cry Today
TTITLE1=Low Down
TTITLE2=Forever Man
TTITLE3=Them Changes
TTITLE4=Sleeping In The Ground
TTITLE5=Presence Of The Lord
TTITLE6=Glad
TTITLE7=Well Alright
TTITLE8=Double Trouble
TTITLE9=Pearly Queen
TTITLE10=Tell The Truth
TTITLE11=No Face, No Name, No Number
EXTD=
EXTT0=
EXTT1=
EXTT2=
EXTT3=
EXTT4=
EXTT5=
EXTT6=
EXTT7=
EXTT8=
EXTT9=
EXTT10=
EXTT11=
PLAYORDER=
